<?xml version="1.0" encoding="utf-8"?>
<!-- Generator: Adobe Illustrator 23.0.3, SVG Export Plug-In . SVG Version: 6.00 Build 0)  -->
<svg version="1.1" id="Capa_1" xmlns="http://www.w3.org/2000/svg" xmlns:xlink="http://www.w3.org/1999/xlink" x="0px" y="0px"
	 viewBox="0 0 20 15" style="enable-background:new 0 0 20 15;" xml:space="preserve">
<style type="text/css">
	.st0{fill:#00FFFF;}
</style>
<g>
	<g>
		<path class="st0" d="M19.7,3.4c-0.2-0.2-0.6-0.2-0.8-0.1l-4.3,2.1l-4-4.6c-0.1-0.2-0.4-0.3-0.6-0.3c-0.2,0-0.4,0.1-0.6,0.3l-4,4.6
			L1.1,3.3C0.8,3.1,0.5,3.2,0.3,3.4S-0.1,3.9,0,4.2L3,14c0.1,0.3,0.4,0.6,0.7,0.6h12.5c0.3,0,0.6-0.2,0.7-0.6l3-9.8
			C20.1,3.9,20,3.6,19.7,3.4z M15.7,13H4.3L2,5.5L5.3,7C5.6,7.2,6,7.1,6.2,6.8L10,2.4l3.8,4.4C14,7.1,14.4,7.2,14.7,7L18,5.5
			L15.7,13z"/>
	</g>
</g>
</svg>
